<?xml version="1.0" encoding="UTF-8" standalone="no"?>
<svg width="548px" height="130px" viewBox="0 0 548 130" version="1.1" xmlns="http://www.w3.org/2000/svg" xmlns:xlink="http://www.w3.org/1999/xlink">
    <!-- Generator: Sketch 41.2 (35397) - http://www.bohemiancoding.com/sketch -->
    <title>Page 1</title>
    <desc>Created with Sketch.</desc>
    <defs>
        <polygon id="path-1" points="0 129.359606 547.587743 129.359606 547.587743 0.278571429 0 0.278571429"></polygon>
    </defs>
    <g id="Welcome" stroke="none" stroke-width="1" fill="none" fill-rule="evenodd">
        <g id="Homepage" transform="translate(-50.000000, -38.000000)">
            <g id="Group-11">
                <g id="Page-1" transform="translate(50.000000, 38.000000)">
                    <polygon id="Fill-1" fill="#E0393E" points="52.1171881 100.827488 76.4975321 100.827488 76.4975321 67.2509852 52.1171881 67.2509852"></polygon>
                    <polygon id="Fill-2" fill="#004FA2" points="0 0.640458128 0 129.721493 77.0273073 129.721493 77.0273073 104.877404 24.3809725 104.877404 24.3809725 25.4845468 77.0273073 25.4845468 77.0273073 0.640458128"></polygon>
                    <g id="Group-42" transform="translate(0.000000, 0.361823)">
                        <path d="M52.6474032,51.2228818 C52.6474032,44.6601232 57.8678573,39.3410099 64.3074858,39.3410099 C70.7471142,39.3410099 75.9675683,44.6601232 75.9675683,51.2228818 C75.9675683,57.785 70.7471142,63.1047537 64.3074858,63.1047537 C57.8678573,63.1047537 52.6474032,57.785 52.6474032,51.2228818 Z" id="Fill-3" fill="#E0393E"></path>
                        <mask id="mask-2" fill="white">
                            <use xlink:href="#path-1"></use>
                        </mask>
                        <g id="Clip-6"></g>
                        <polygon id="Fill-5" fill="#E0393E" mask="url(#mask-2)" points="95.4324404 69.6793596 547.235817 69.6793596 547.235817 65.9958128 95.4324404 65.9958128"></polygon>
                        <polygon id="Fill-7" fill="#004FA2" mask="url(#mask-2)" points="95.4324404 79.9929064 547.235817 79.9929064 547.235817 76.3093596 95.4324404 76.3093596"></polygon>
                        <path d="M120.556355,30.5457734 C120.556355,30.744936 119.814795,30.9434581 119.628777,30.9434581 C119.406938,30.9434581 119.258626,30.8640493 119.183841,30.7052315 C117.849034,26.8577438 115.290025,24.1200591 111.247896,24.1200591 C104.387213,24.1200591 101.1608,31.1022759 101.1608,37.5670542 C101.1608,49.3880887 110.246791,50.2212414 111.136662,50.2212414 C117.033318,50.2212414 118.442282,46.2546404 119.628777,43.914 C119.665855,43.7551823 119.814795,43.5963645 119.963107,43.5963645 C120.964213,43.5963645 121.038369,43.7154778 121.038369,43.9940493 C121.038369,44.9450345 120.482199,48.2770049 120.370965,49.6263153 C120.333887,50.0624236 120.074341,50.1815369 119.703561,50.2609458 C116.180525,51.0934581 113.175951,51.8074975 110.543415,51.8074975 C101.383268,51.8074975 94.4861349,47.0480887 94.4861349,36.5757241 C94.4861349,31.4186305 97.6006853,22.533803 109.801855,22.533803 C114.659699,22.533803 117.329942,24.0406502 118.071502,24.0406502 C118.66475,24.0406502 119.035529,23.2875468 119.36986,23.2875468 C119.740639,23.2875468 119.888951,23.5257734 119.963107,24.4376946 C120.185575,26.6195172 120.556355,29.2374483 120.556355,30.5457734" id="Fill-8" fill="#004FA2" mask="url(#mask-2)"></path>
                        <path d="M130.833869,37.1710985 C130.833869,42.12967 132.465928,50.2210493 138.918126,50.2210493 C145.630497,50.2210493 147.003011,43.2791773 147.003011,37.1710985 C147.003011,31.6963695 145.222639,24.1205074 138.918126,24.1205074 C132.205754,24.1205074 130.833869,31.3006059 130.833869,37.1710985 M153.678305,37.1710985 C153.678305,42.2090788 151.081589,51.8073054 138.361956,51.8073054 C130.092309,51.8073054 124.158575,46.135335 124.158575,37.1710985 C124.158575,28.4047438 130.870947,22.5336108 139.474924,22.5336108 C147.744571,22.5336108 153.678305,28.2055813 153.678305,37.1710985" id="Fill-9" fill="#004FA2" mask="url(#mask-2)"></path>
                        <path d="M161.694061,28.7221232 C161.508672,32.0540936 161.508672,41.0580345 161.508672,41.9705961 C161.508672,49.4279852 161.508672,49.586803 165.105864,49.7059163 C165.92158,49.7456207 166.032814,49.8250296 166.032814,50.6178374 C166.032814,51.1333547 165.958658,51.2921724 165.438938,51.2921724 C163.955818,51.2921724 162.435621,51.2127635 160.952502,51.2127635 C159.431048,51.2127635 157.91085,51.2921724 156.390653,51.2921724 C155.834483,51.2921724 155.834483,50.9745369 155.834483,50.4987241 C155.834483,49.9044384 155.870933,49.7456207 156.724355,49.7059163 C159.320442,49.586803 159.654144,49.5470985 159.802456,46.3733054 C159.876612,44.7870493 160.09908,33.3227143 160.09908,28.523601 C160.09908,27.6507438 160.024924,27.0558177 159.209208,26.183601 C157.763167,24.6357685 157.502993,24.596064 156.353575,24.5172956 C155.203529,24.4378867 155.166451,24.3584778 155.166451,23.7232069 C155.166451,23.326803 155.240607,22.9297586 155.686172,22.9297586 C156.576043,22.9297586 158.949662,23.0488719 159.654144,23.0885764 C160.65525,23.1282808 163.251337,22.9297586 164.438461,22.9297586 C164.771534,22.9297586 165.031708,23.2473941 165.254176,23.4856207 C170.742346,29.8716305 176.11991,36.3780345 181.905332,42.406064 C181.905332,38.0039951 182.201956,33.8388719 182.201956,30.7841921 C182.201956,25.0328128 180.829442,24.5172956 178.381667,24.5172956 C177.640107,24.5172956 177.603029,24.279069 177.603029,23.7232069 C177.603029,23.326803 177.640107,22.9297586 178.085043,22.9297586 C179.123855,22.9297586 182.164878,23.0885764 182.943516,23.0885764 C183.685075,23.0885764 186.800254,22.9297586 187.467658,22.9297586 C187.80136,22.9297586 187.912594,23.1282808 187.912594,23.6444384 C187.912594,24.1996601 187.912594,24.5172956 187.282268,24.5172956 C184.871571,24.5172956 184.092933,25.3107438 183.907543,28.1662611 C183.722153,30.7444877 183.240139,46.3733054 183.240139,51.0936502 C183.240139,51.9665074 183.017672,51.9665074 182.090722,51.9665074 C181.97886,51.9665074 181.830548,51.8870985 180.792364,50.6575419 L161.694061,28.7221232 Z" id="Fill-10" fill="#004FA2" mask="url(#mask-2)"></path>
                        <path d="M213.877613,23.0886404 C214.730406,23.0886404 215.138264,21.9788374 215.731512,21.9788374 C216.139998,21.9788374 216.28831,22.1760788 216.362466,22.5731232 C216.473072,23.2474581 218.179287,29.1582956 218.179287,29.633468 C218.179287,29.9908079 217.697273,29.9908079 217.474806,29.9908079 C216.992792,29.9908079 216.918636,29.9511034 216.65909,29.5156355 C214.582094,25.9845025 213.321443,24.6755369 208.129269,24.6755369 C205.718572,24.6755369 205.718572,24.7152414 205.718572,27.4125813 L205.718572,43.3980985 C205.718572,49.1891823 205.792728,49.7053399 208.462971,49.7053399 C209.613017,49.7053399 209.72425,49.7853892 209.72425,50.7767192 C209.72425,51.1334187 209.613017,51.2922365 209.242237,51.2922365 C207.091085,51.2922365 204.977012,51.2128276 202.826489,51.2128276 C200.675338,51.2128276 198.561893,51.2922365 196.410741,51.2922365 C196.039961,51.2922365 195.928099,51.1334187 195.928099,50.7767192 C195.928099,49.7853892 196.039961,49.7053399 197.189379,49.7053399 C199.859622,49.7053399 199.933778,49.1891823 199.933778,43.3980985 L199.933778,27.4125813 C199.933778,24.7152414 199.933778,24.6755369 197.300613,24.6755369 C192.665237,24.6755369 191.033177,26.2233695 188.95681,29.5156355 C188.696636,29.9511034 188.548952,30.0702167 188.103388,30.0702167 C187.732608,30.0702167 187.435984,29.9908079 187.435984,29.5553399 C187.435984,28.8797241 189.17865,23.8026798 189.252806,22.9695271 C189.289883,22.5334187 189.475273,22.1363744 189.994994,22.1363744 C190.477007,22.1363744 190.847787,23.0886404 192.701686,23.0886404 L213.877613,23.0886404 Z" id="Fill-11" fill="#004FA2" mask="url(#mask-2)"></path>
                        <path d="M222.931365,29.7527734 C222.931365,25.0324286 222.708897,24.5175517 219.704952,24.5175517 C219.222938,24.5175517 218.740924,24.2793251 218.740924,24.0410985 C218.740924,23.0094236 218.778002,22.9300148 219.408328,22.9300148 C221.559479,22.9300148 223.672924,23.0888325 225.824076,23.0888325 C227.975227,23.0888325 230.088672,22.9300148 232.239823,22.9300148 C232.870149,22.9300148 232.907227,23.0094236 232.907227,24.0410985 C232.907227,24.2793251 232.424585,24.5175517 231.942571,24.5175517 C228.939255,24.5175517 228.716787,25.0324286 228.716787,29.7527734 L228.716787,43.3982906 C228.716787,49.1893744 228.790314,49.705532 231.461186,49.705532 C232.610603,49.705532 232.721837,49.7849409 232.721837,50.7769113 C232.721837,51.1336108 232.610603,51.2924286 232.239823,51.2924286 C230.088672,51.2924286 227.975227,51.2130197 225.824076,51.2130197 C223.672924,51.2130197 221.559479,51.2924286 219.408328,51.2924286 C219.037548,51.2924286 218.925686,51.1336108 218.925686,50.7769113 C218.925686,49.7849409 219.037548,49.705532 220.186966,49.705532 C222.857209,49.705532 222.931365,49.1893744 222.931365,43.3982906 L222.931365,29.7527734 Z" id="Fill-12" fill="#004FA2" mask="url(#mask-2)"></path>
                        <path d="M239.585034,28.7221232 C239.399644,32.0540936 239.399644,41.0580345 239.399644,41.9705961 C239.399644,49.4279852 239.399644,49.586803 242.996837,49.7059163 C243.812553,49.7456207 243.923787,49.8250296 243.923787,50.6178374 C243.923787,51.1333547 243.849631,51.2921724 243.330539,51.2921724 C241.84742,51.2921724 240.326594,51.2127635 238.843475,51.2127635 C237.322649,51.2127635 235.801823,51.2921724 234.281626,51.2921724 C233.725456,51.2921724 233.725456,50.9745369 233.725456,50.4987241 C233.725456,49.9044384 233.762534,49.7456207 234.615328,49.7059163 C237.211415,49.586803 237.545117,49.5470985 237.693429,46.3733054 C237.767585,44.7870493 237.990053,33.3227143 237.990053,28.523601 C237.990053,27.6507438 237.915897,27.0558177 237.100181,26.183601 C235.65414,24.6357685 235.394594,24.596064 234.244548,24.5172956 C233.095131,24.4378867 233.058053,24.3584778 233.058053,23.7232069 C233.058053,23.326803 233.132209,22.9297586 233.577144,22.9297586 C234.467016,22.9297586 236.840635,23.0488719 237.545117,23.0885764 C238.546222,23.1282808 241.142938,22.9297586 242.329433,22.9297586 C242.663135,22.9297586 242.922681,23.2473941 243.145149,23.4856207 C248.633319,29.8716305 254.010883,36.3780345 259.796305,42.406064 C259.796305,38.0039951 260.092929,33.8388719 260.092929,30.7841921 C260.092929,25.0328128 258.720415,24.5172956 256.27264,24.5172956 C255.531709,24.5172956 255.494002,24.279069 255.494002,23.7232069 C255.494002,23.326803 255.531709,22.9297586 255.976644,22.9297586 C257.014828,22.9297586 260.055851,23.0885764 260.834489,23.0885764 C261.576048,23.0885764 264.691227,22.9297586 265.359259,22.9297586 C265.692333,22.9297586 265.803567,23.1282808 265.803567,23.6444384 C265.803567,24.1996601 265.803567,24.5172956 265.173241,24.5172956 C262.763172,24.5172956 261.984534,25.3107438 261.799144,28.1662611 C261.613126,30.7444877 261.131112,46.3733054 261.131112,51.0936502 C261.131112,51.9665074 260.908644,51.9665074 259.981695,51.9665074 C259.869833,51.9665074 259.722149,51.8870985 258.683337,50.6575419 L239.585034,28.7221232 Z" id="Fill-13" fill="#004FA2" mask="url(#mask-2)"></path>
                        <path d="M270.222759,29.7527734 C270.222759,25.0324286 270.000291,24.5175517 266.996346,24.5175517 C266.514961,24.5175517 266.032319,24.2793251 266.032319,24.0410985 C266.032319,23.0094236 266.069397,22.9300148 266.700351,22.9300148 C267.66375,22.9300148 270.111525,23.0888325 272.41036,23.0888325 C284.389062,23.0888325 286.021122,22.9300148 287.170539,22.9300148 C287.319479,22.9300148 287.541319,23.0491281 287.541319,23.2079458 C287.541319,23.8022315 289.173378,28.4047438 289.173378,28.9990296 C289.173378,29.3563695 288.950282,29.3563695 288.394741,29.3563695 C287.838571,29.3563695 287.838571,29.316665 287.022227,28.2452857 C286.503764,27.6112956 285.390796,26.1038079 284.018911,25.350064 C282.905943,24.7544975 282.79408,24.7147931 279.716608,24.7147931 C276.119415,24.7147931 276.008181,24.7147931 276.008181,27.1348424 L276.008181,36.2982414 L278.418878,36.2982414 C281.311589,36.2982414 281.867131,35.4253842 282.349773,32.608931 C282.498085,31.6963695 282.572241,31.4581429 283.165489,31.4581429 C283.759365,31.4581429 283.981833,31.4978473 283.981833,31.9345961 C283.981833,32.331 283.86997,33.4817882 283.86997,37.0916897 C283.86997,38.9168128 283.981833,40.6221823 283.981833,42.3666158 C283.981833,42.6842512 283.647502,42.7239557 282.943021,42.7239557 C282.683475,42.7239557 282.646397,42.6842512 282.498085,41.8517389 C281.941287,38.4000148 281.645291,37.8851379 277.268833,37.8851379 L276.008181,37.8851379 L276.008181,48.1192759 C276.008181,49.5467143 276.008181,49.705532 284.94586,49.705532 C285.613892,49.705532 286.799131,49.14967 287.429456,48.2383892 C289.544787,45.1036601 289.693099,44.7873054 290.359874,44.7873054 C290.95375,44.7873054 291.176218,44.7873054 291.176218,45.0639557 C291.176218,45.3021823 289.952016,48.6738571 289.173378,50.6975025 C288.950282,51.2924286 288.840305,51.2924286 287.875021,51.2924286 C287.208245,51.2924286 286.466057,51.2130197 272.226227,51.2130197 C267.478989,51.2130197 267.145287,51.2924286 266.700351,51.2924286 C266.328943,51.2924286 266.217709,51.1336108 266.217709,50.7769113 C266.217709,49.7849409 266.328943,49.705532 267.478989,49.705532 C270.148603,49.705532 270.222759,49.1893744 270.222759,43.3982906 L270.222759,29.7527734 Z" id="Fill-14" fill="#004FA2" mask="url(#mask-2)"></path>
                        <path d="M298.003908,28.7221232 C297.818518,32.0540936 297.818518,41.0580345 297.818518,41.9705961 C297.818518,49.4279852 297.818518,49.586803 301.416339,49.7059163 C302.231427,49.7456207 302.342032,49.8250296 302.342032,50.6178374 C302.342032,51.1333547 302.267876,51.2921724 301.749413,51.2921724 C300.266294,51.2921724 298.746096,51.2127635 297.262349,51.2127635 C295.741523,51.2127635 294.221326,51.2921724 292.701128,51.2921724 C292.14433,51.2921724 292.14433,50.9745369 292.14433,50.4987241 C292.14433,49.9044384 292.18078,49.7456207 293.034202,49.7059163 C295.630917,49.586803 295.963991,49.5470985 296.112303,46.3733054 C296.186459,44.7870493 296.409555,33.3227143 296.409555,28.523601 C296.409555,27.6507438 296.335399,27.0558177 295.519055,26.183601 C294.073014,24.6357685 293.812839,24.596064 292.66405,24.5172956 C291.514005,24.4378867 291.476927,24.3584778 291.476927,23.7232069 C291.476927,23.326803 291.551083,22.9297586 291.99539,22.9297586 C292.885261,22.9297586 295.259509,23.0488719 295.963991,23.0885764 C296.965725,23.1282808 299.561812,22.9297586 300.747679,22.9297586 C301.081381,22.9297586 301.342183,23.2473941 301.563394,23.4856207 C307.051564,29.8716305 312.430385,36.3780345 318.21455,42.406064 C318.21455,38.0039951 318.511803,33.8388719 318.511803,30.7841921 C318.511803,25.0328128 317.139917,24.5172956 314.692142,24.5172956 C313.950583,24.5172956 313.912876,24.279069 313.912876,23.7232069 C313.912876,23.326803 313.950583,22.9297586 314.39489,22.9297586 C315.433702,22.9297586 318.474725,23.0885764 319.253362,23.0885764 C319.994922,23.0885764 323.110101,22.9297586 323.777505,22.9297586 C324.111835,22.9297586 324.223069,23.1282808 324.223069,23.6444384 C324.223069,24.1996601 324.223069,24.5172956 323.592743,24.5172956 C321.182046,24.5172956 320.404037,25.3107438 320.218018,28.1662611 C320.032628,30.7444877 319.550615,46.3733054 319.550615,51.0936502 C319.550615,51.9665074 319.328147,51.9665074 318.400569,51.9665074 C318.288706,51.9665074 318.140394,51.8870985 317.102839,50.6575419 L298.003908,28.7221232 Z" id="Fill-15" fill="#004FA2" mask="url(#mask-2)"></path>
                        <path d="M350.187837,23.0886404 C351.04063,23.0886404 351.448488,21.9788374 352.042364,21.9788374 C352.450222,21.9788374 352.598534,22.1760788 352.67269,22.5731232 C352.783924,23.2474581 354.489511,29.1582956 354.489511,29.633468 C354.489511,29.9908079 354.007497,29.9908079 353.785029,29.9908079 C353.303016,29.9908079 353.22886,29.9511034 352.968685,29.5156355 C350.892318,25.9845025 349.631667,24.6755369 344.439493,24.6755369 C342.028795,24.6755369 342.028795,24.7152414 342.028795,27.4125813 L342.028795,43.3980985 C342.028795,49.1891823 342.102951,49.7053399 344.773823,49.7053399 C345.922612,49.7053399 346.034474,49.7853892 346.034474,50.7767192 C346.034474,51.1334187 345.922612,51.2922365 345.552461,51.2922365 C343.400681,51.2922365 341.287236,51.2128276 339.136713,51.2128276 C336.985561,51.2128276 334.871488,51.2922365 332.720965,51.2922365 C332.349557,51.2922365 332.238951,51.1334187 332.238951,50.7767192 C332.238951,49.7853892 332.349557,49.7053399 333.499603,49.7053399 C336.169846,49.7053399 336.24463,49.1891823 336.24463,43.3980985 L336.24463,27.4125813 C336.24463,24.7152414 336.24463,24.6755369 333.610837,24.6755369 C328.975461,24.6755369 327.343401,26.2233695 325.266406,29.5156355 C325.007488,29.9511034 324.858548,30.0702167 324.412983,30.0702167 C324.042832,30.0702167 323.746208,29.9908079 323.746208,29.5553399 C323.746208,28.8797241 325.488873,23.8026798 325.563029,22.9695271 C325.600736,22.5334187 325.786126,22.1363744 326.305217,22.1363744 C326.786603,22.1363744 327.158011,23.0886404 329.012539,23.0886404 L350.187837,23.0886404 Z" id="Fill-16" fill="#004FA2" mask="url(#mask-2)"></path>
                        <path d="M365.990284,40.0663202 L362.282486,29.8321823 C361.762137,31.3390296 358.721743,38.7579951 358.721743,39.7493251 C358.721743,39.8280936 358.832977,40.0663202 359.537458,40.0663202 L365.990284,40.0663202 Z M358.572802,41.8517389 C358.277435,41.8517389 358.054339,41.8517389 357.942477,42.0899655 C357.386935,43.2394729 355.940894,46.8493744 355.940894,48.1192759 C355.940894,48.9120837 356.385201,49.705532 357.906027,49.705532 C359.834711,49.705532 359.983022,49.8246453 359.983022,50.4592759 C359.983022,50.8953842 359.983022,51.2924286 359.463302,51.2924286 C358.016633,51.2924286 356.57122,51.2130197 355.12455,51.2130197 C353.86327,51.2130197 352.566169,51.2924286 351.305518,51.2924286 C351.082422,51.2924286 350.896403,51.0939064 350.896403,50.6180936 C350.896403,49.8643498 351.156578,49.7452365 352.231211,49.705532 C353.456041,49.6658276 353.86327,48.2383892 354.641908,46.2941527 C355.68072,43.7556305 356.719532,41.1376995 357.535247,38.4794236 C359.018367,33.6009015 363.246513,23.406468 363.579587,22.732133 C363.691449,22.4939064 364.321775,22.454202 364.544243,22.454202 C365.285802,22.454202 365.434114,22.5733153 365.583055,22.9300148 C367.325091,27.651 373.184669,43.3585862 374.965041,47.2861232 C375.929068,49.3878966 376.26277,49.705532 378.26561,49.705532 C378.859486,49.705532 378.859486,50.0622315 378.859486,50.4592759 C378.859486,50.8159754 378.895935,51.2924286 378.413922,51.2924286 C376.336926,51.2924286 374.22411,51.2130197 372.220642,51.2130197 C368.103729,51.2130197 366.546454,51.2924286 366.287536,51.2924286 C365.990284,51.2924286 365.87905,51.054202 365.87905,50.5783892 C365.87905,49.8246453 365.916128,49.705532 367.436954,49.705532 C368.438688,49.705532 369.105463,49.705532 369.105463,48.7135616 C369.105463,47.9207537 366.95494,42.9621823 366.657688,41.8517389 L358.572802,41.8517389 Z" id="Fill-17" fill="#004FA2" mask="url(#mask-2)"></path>
                        <path d="M382.422994,29.7527734 C382.422994,25.0324286 382.200526,24.5175517 379.196581,24.5175517 C378.715196,24.5175517 378.232554,24.2793251 378.232554,24.0410985 C378.232554,23.0094236 378.269632,22.9300148 378.901214,22.9300148 C381.051109,22.9300148 383.165182,23.0888325 385.315705,23.0888325 C387.466856,23.0888325 389.58093,22.9300148 391.731453,22.9300148 C392.362407,22.9300148 392.399485,23.0094236 392.399485,24.0410985 C392.399485,24.2793251 391.916843,24.5175517 391.435457,24.5175517 C388.432141,24.5175517 388.209044,25.0324286 388.209044,29.7527734 L388.209044,46.7699655 C388.209044,48.9914926 388.467962,49.5070099 391.805609,49.5070099 C397.072567,49.5070099 399.371402,49.427601 401.410691,43.4776995 C401.559003,43.0018867 401.7821,43.0018867 402.189329,43.0018867 C402.560737,43.0018867 402.745499,43.0415911 402.745499,43.3585862 C402.745499,43.9541527 401.373613,50.7769113 401.187595,51.054202 C401.077618,51.2924286 400.892228,51.2924286 400.632054,51.2924286 C399.037072,51.2924286 392.658402,51.1336108 388.691058,51.1336108 C382.868558,51.1336108 380.940503,51.2924286 378.901214,51.2924286 C378.529806,51.2924286 378.417944,51.1336108 378.417944,50.7769113 C378.417944,49.7849409 378.529806,49.705532 379.679852,49.705532 C382.348838,49.705532 382.422994,49.1893744 382.422994,43.3982906 L382.422994,29.7527734 Z" id="Fill-18" fill="#004FA2" mask="url(#mask-2)"></path>
                        <path d="M423.445319,37.0916256 C423.445319,37.7262562 424.409346,37.8850739 424.817204,37.8850739 C428.599787,37.8850739 430.825094,34.948867 430.825094,31.0226108 C430.825094,27.2141872 428.822883,24.5174877 425.113828,24.5174877 C423.445319,24.5174877 423.445319,25.2308867 423.445319,26.9368966 L423.445319,37.0916256 Z M417.659897,29.7527094 C417.659897,25.0323645 417.4368,24.5174877 414.433484,24.5174877 C413.952099,24.5174877 413.468828,24.2792611 413.468828,24.0410345 C413.468828,23.0093596 413.506534,22.9299507 414.13686,22.9299507 C416.287383,22.9299507 418.401456,23.0887685 420.551979,23.0887685 C421.516635,23.0887685 424.186878,22.9299507 426.85775,22.9299507 C435.312787,22.9299507 436.981296,28.2855665 436.981296,30.943202 C436.981296,35.4650246 434.348131,39.6698522 427.190823,39.6698522 C425.96725,39.6698522 424.594108,39.47133 423.445319,39.2728079 L423.445319,45.2624138 C423.445319,49.1893103 423.519475,49.705468 426.745888,49.705468 C428.080695,49.705468 428.192557,49.7848768 428.192557,50.7768473 C428.192557,51.1335468 428.080695,51.2923645 427.524525,51.2923645 C424.817204,51.2923645 422.703759,51.2129557 420.551979,51.2129557 C418.401456,51.2129557 416.287383,51.2923645 414.13686,51.2923645 C413.76608,51.2923645 413.654846,51.1335468 413.654846,50.7768473 C413.654846,49.7848768 413.76608,49.705468 414.916126,49.705468 C417.585741,49.705468 417.659897,49.1893103 417.659897,43.3982266 L417.659897,29.7527094 Z" id="Fill-19" fill="#004FA2" mask="url(#mask-2)"></path>
                        <path d="M446.10845,37.1710985 C446.10845,42.12967 447.740509,50.2210493 454.192706,50.2210493 C460.905078,50.2210493 462.276963,43.2791773 462.276963,37.1710985 C462.276963,31.6963695 460.49722,24.1205074 454.192706,24.1205074 C447.480335,24.1205074 446.10845,31.3006059 446.10845,37.1710985 M468.952885,37.1710985 C468.952885,42.2090788 466.35617,51.8073054 453.636537,51.8073054 C445.366261,51.8073054 439.432528,46.135335 439.432528,37.1710985 C439.432528,28.4047438 446.145528,22.5336108 454.748876,22.5336108 C463.018523,22.5336108 468.952885,28.2055813 468.952885,37.1710985" id="Fill-20" fill="#004FA2" mask="url(#mask-2)"></path>
                        <path d="M478.562681,37.1710985 C478.562681,42.12967 480.194741,50.2210493 486.647567,50.2210493 C493.35931,50.2210493 494.731823,43.2791773 494.731823,37.1710985 C494.731823,31.6963695 492.951452,24.1205074 486.647567,24.1205074 C479.935195,24.1205074 478.562681,31.3006059 478.562681,37.1710985 M501.407117,37.1710985 C501.407117,42.2090788 498.81103,51.8073054 486.090768,51.8073054 C477.821122,51.8073054 471.887388,46.135335 471.887388,37.1710985 C471.887388,28.4047438 478.600388,22.5336108 487.203736,22.5336108 C495.472755,22.5336108 501.407117,28.2055813 501.407117,37.1710985" id="Fill-21" fill="#004FA2" mask="url(#mask-2)"></path>
                        <path d="M507.60599,29.7527734 C507.60599,25.0324286 507.383522,24.5175517 504.379577,24.5175517 C503.898192,24.5175517 503.414921,24.2793251 503.414921,24.0410985 C503.414921,23.0094236 503.452628,22.9300148 504.083582,22.9300148 C506.234105,22.9300148 508.348178,23.0888325 510.498701,23.0888325 C512.649852,23.0888325 514.763926,22.9300148 516.914449,22.9300148 C517.544774,22.9300148 517.582481,23.0094236 517.582481,24.0410985 C517.582481,24.2793251 517.09921,24.5175517 516.617825,24.5175517 C513.614508,24.5175517 513.391412,25.0324286 513.391412,29.7527734 L513.391412,46.7699655 C513.391412,48.9914926 513.650329,49.5070099 516.988605,49.5070099 C522.255563,49.5070099 524.554398,49.427601 526.593687,43.4776995 C526.741999,43.0018867 526.965095,43.0018867 527.372325,43.0018867 C527.743733,43.0018867 527.928494,43.0415911 527.928494,43.3585862 C527.928494,43.9541527 526.555981,50.7769113 526.370591,51.054202 C526.260614,51.2924286 526.074595,51.2924286 525.81505,51.2924286 C524.220068,51.2924286 517.841398,51.1336108 513.873426,51.1336108 C508.051554,51.1336108 506.122871,51.2924286 504.083582,51.2924286 C503.712173,51.2924286 503.600939,51.1336108 503.600939,50.7769113 C503.600939,49.7849409 503.712173,49.705532 504.862219,49.705532 C507.531834,49.705532 507.60599,49.1893744 507.60599,43.3982906 L507.60599,29.7527734 Z" id="Fill-22" fill="#004FA2" mask="url(#mask-2)"></path>
                        <path d="M546.734384,29.6733645 C546.734384,30.0704089 546.290077,30.1895222 545.659751,30.1895222 C544.992347,30.1895222 544.397843,24.1205074 539.169847,24.1205074 C536.647288,24.1205074 534.793389,26.0641034 534.793389,28.7620837 C534.793389,32.7280443 540.504655,33.561197 544.843407,37.1710985 C546.80854,38.7976995 547.587178,40.9788818 547.587178,43.4776995 C547.587178,47.9604581 544.286609,51.8073054 537.760884,51.8073054 C535.238953,51.8073054 533.495659,51.2924286 530.602948,51.2924286 C530.19509,51.2924286 529.898467,51.2527241 529.824311,50.6975025 C529.713077,49.6658276 529.341668,45.5801133 529.341668,44.230803 C529.341668,44.0322808 529.490609,43.9938571 530.19509,43.9938571 C530.640655,43.9938571 530.714811,44.3102118 530.936022,45.0242512 C532.011911,48.1192759 534.0512,50.2210493 537.50071,50.2210493 C540.245737,50.2210493 542.099008,48.4356305 542.099008,45.8176995 C542.099008,38.4794236 529.972622,40.1060246 529.972622,31.1417882 C529.972622,25.8258768 533.718127,22.5336108 538.686577,22.5336108 C540.133875,22.5336108 541.506389,22.7718374 542.544572,22.9697192 C543.619833,23.2079458 544.397843,23.406468 544.658017,23.406468 C545.065875,23.406468 545.362499,22.6527241 545.770985,22.6527241 C546.06698,22.6527241 546.178214,22.8512463 546.215921,24.1205074 C546.290077,27.3333645 546.734384,29.5151872 546.734384,29.6733645" id="Fill-23" fill="#004FA2" mask="url(#mask-2)"></path>
                        <polygon id="Fill-24" fill="#004FA2" mask="url(#mask-2)" points="97.6716991 101.600443 97.6415339 101.600443 96.3356349 109.135961 94.8946211 109.135961 97.1815156 97.2425616 101.026942 106.229852 104.872369 97.2425616 107.159263 109.135961 105.718878 109.135961 104.412979 101.600443 104.382814 101.600443 101.026942 109.377389"></polygon>
                        <path d="M127.236613,100.360256 L125.246971,104.973655 L129.226256,104.973655 L127.236613,100.360256 Z M124.668178,106.275576 L123.391187,109.135576 L121.891728,109.135576 L127.236613,97.2428177 L132.581499,109.135576 L131.082668,109.135576 L129.805678,106.275576 L124.668178,106.275576 Z" id="Fill-25" fill="#004FA2" mask="url(#mask-2)"></path>
                        <polygon id="Fill-26" fill="#004FA2" mask="url(#mask-2)" points="148.133198 97.181468 156.537331 106.15467 156.537331 97.7270837 157.933097 97.7270837 157.933097 109.604473 149.528964 100.632552 149.528964 109.135704 148.133198 109.135704"></polygon>
                        <path d="M178.673012,100.360256 L176.68337,104.973655 L180.662654,104.973655 L178.673012,100.360256 Z M176.103948,106.275576 L174.826957,109.135576 L173.327498,109.135576 L178.673012,97.2428177 L184.018526,109.135576 L182.518439,109.135576 L181.241448,106.275576 L176.103948,106.275576 Z" id="Fill-27" fill="#004FA2" mask="url(#mask-2)"></path>
                        <path d="M209.904173,103.385286 L209.904173,103.839966 C209.904173,106.972133 207.736054,109.376813 204.60265,109.376813 C201.469875,109.376813 198.946058,106.623759 198.946058,103.461493 C198.946058,100.178192 201.529577,97.4846946 204.75159,97.4846946 C206.489228,97.4846946 208.211155,98.2871084 209.309668,99.6934138 L208.32993,100.646961 C207.528668,99.5281921 206.176893,98.7859754 204.811292,98.7859754 C202.30193,98.7859754 200.341824,100.858931 200.341824,103.416025 C200.341824,105.805975 202.271765,108.076172 204.691889,108.076172 C206.429526,108.076172 208.300393,106.547552 208.359467,104.687207 L205.464242,104.687207 L205.464242,103.385286 L209.904173,103.385286 Z" id="Fill-28" fill="#004FA2" mask="url(#mask-2)"></path>
                        <polygon id="Fill-29" fill="#004FA2" mask="url(#mask-2)" points="225.951461 97.7267635 231.965006 97.7267635 231.965006 99.0274039 227.347227 99.0274039 227.347227 102.221049 231.831777 102.221049 231.831777 103.52169 227.347227 103.52169 227.347227 107.833463 231.965006 107.833463 231.965006 109.135384 225.951461 109.135384"></polygon>
                        <polygon id="Fill-30" fill="#004FA2" mask="url(#mask-2)" points="249.859846 101.600443 249.830309 101.600443 248.523782 109.135961 247.083396 109.135961 249.370291 97.2425616 253.215717 106.229852 257.061144 97.2425616 259.348039 109.135961 257.907653 109.135961 256.601126 101.600443 256.571589 101.600443 253.215717 109.377389"></polygon>
                        <polygon id="Fill-31" fill="#004FA2" mask="url(#mask-2)" points="275.268067 97.7267635 281.280984 97.7267635 281.280984 99.0274039 276.663205 99.0274039 276.663205 102.221049 281.147755 102.221049 281.147755 103.52169 276.663205 103.52169 276.663205 107.833463 281.280984 107.833463 281.280984 109.135384 275.268067 109.135384"></polygon>
                        <polygon id="Fill-32" fill="#004FA2" mask="url(#mask-2)" points="297.142317 97.181468 305.545821 106.15467 305.545821 97.7270837 306.942216 97.7270837 306.942216 109.604473 298.538083 100.632552 298.538083 109.135704 297.142317 109.135704"></polygon>
                        <polygon id="Fill-33" fill="#004FA2" mask="url(#mask-2)" points="326.53906 109.135704 325.142666 109.135704 325.142666 99.0277241 322.48562 99.0277241 322.48562 97.7270837 329.196734 97.7270837 329.196734 99.0277241 326.53906 99.0277241"></polygon>
                        <path d="M366.967886,101.600443 C367.531597,101.147044 368.30395,100.677635 368.30395,99.8451232 C368.30395,99.0439901 367.740239,98.6046798 366.996794,98.6046798 C366.328762,98.6046798 365.749968,99.0888177 365.749968,99.8150246 C365.749968,100.389458 366.090583,100.813399 366.418,101.23798 L366.790037,101.721478 L366.967886,101.600443 Z M366.358927,103.597192 C365.587202,104.142808 364.324037,104.913842 364.324037,106.003793 C364.324037,107.093103 365.333941,108.106847 366.404175,108.106847 C367.442987,108.106847 368.274413,107.303793 368.971354,106.593596 L366.492785,103.506897 L366.358927,103.597192 Z M369.803409,107.59197 C368.957528,108.605714 367.768519,109.377389 366.448166,109.377389 C364.57667,109.377389 363.01751,107.985813 363.01751,106.017882 C363.01751,104.566108 363.909267,103.778424 364.978244,102.99202 L365.675812,102.478424 C365.037317,101.797044 364.442812,100.949163 364.442812,99.9815271 C364.442812,98.4074384 365.557037,97.4846305 367.026959,97.4846305 C368.393817,97.4846305 369.610478,98.3619704 369.610478,99.8598522 C369.610478,101.147044 368.511335,102.009015 367.576844,102.705123 L369.90773,105.579852 L371.214257,104.036502 L372.105386,104.974039 L370.739156,106.608966 L372.742624,109.135961 L371.021326,109.135961 L369.803409,107.59197 Z" id="Fill-34" fill="#004FA2" mask="url(#mask-2)"></path>
                        <path d="M412.291068,99.8905911 C411.87504,99.1797537 411.340238,98.8166502 410.493728,98.8166502 C409.603857,98.8166502 408.622861,99.4371921 408.622861,100.434926 C408.622861,101.328276 409.484453,101.797044 410.18265,102.068571 L410.98454,102.387488 C412.571981,103.022759 413.76099,103.914828 413.76099,105.822562 C413.76099,107.894877 412.186118,109.376749 410.18265,109.376749 C408.370857,109.376749 406.961265,108.015911 406.723086,106.185025 L408.133935,105.882118 C408.117595,107.138571 409.098591,108.045369 410.301426,108.045369 C411.504261,108.045369 412.365224,107.017537 412.365224,105.822562 C412.365224,104.596847 411.399311,104.066601 410.434655,103.65867 L409.662302,103.325025 C408.384683,102.76468 407.227724,102.023744 407.227724,100.434926 C407.227724,98.5893103 408.830875,97.4846305 410.523265,97.4846305 C411.771348,97.4846305 412.796334,98.104532 413.404664,99.2104926 L412.291068,99.8905911 Z" id="Fill-35" fill="#004FA2" mask="url(#mask-2)"></path>
                        <polygon id="Fill-36" fill="#004FA2" mask="url(#mask-2)" points="430.384557 97.7267635 436.397475 97.7267635 436.397475 99.0274039 431.780323 99.0274039 431.780323 102.221049 436.264245 102.221049 436.264245 103.52169 431.780323 103.52169 431.780323 107.833463 436.397475 107.833463 436.397475 109.135384 430.384557 109.135384"></polygon>
                        <path d="M453.787802,103.128872 L454.232738,103.128872 C455.658669,103.128872 457.203376,102.855424 457.203376,101.040547 C457.203376,99.2557685 455.540522,98.99833 454.159839,98.99833 L453.787802,98.99833 L453.787802,103.128872 Z M459.355784,109.135768 L457.663394,109.135768 L454.366596,104.308478 L453.787802,104.308478 L453.787802,109.135768 L452.392036,109.135768 L452.392036,97.7265074 L454.085055,97.7265074 C455.079876,97.7265074 456.149481,97.7418768 457.039353,98.2567537 C457.9751,98.8170985 458.509275,99.890399 458.509275,100.98035 C458.509275,102.613995 457.440926,103.976113 455.822064,104.172074 L459.355784,109.135768 Z" id="Fill-37" fill="#004FA2" mask="url(#mask-2)"></path>
                        <polygon id="Fill-38" fill="#004FA2" mask="url(#mask-2)" points="479.158003 106.170103 482.483709 97.7265074 484.013961 97.7265074 479.158003 109.740941 474.288218 97.7265074 475.817842 97.7265074"></polygon>
                        <polygon id="Fill-39" fill="#004FA2" mask="url(#mask-2)" points="499.544106 109.135961 500.939872 109.135961 500.939872 97.7273399 499.544106 97.7273399"></polygon>
                        <path d="M525.507931,99.9056404 C524.706669,99.1794335 523.607527,98.7862315 522.553633,98.7862315 C520.04427,98.7862315 518.129412,100.919384 518.129412,103.446379 C518.129412,105.942635 520.029188,108.076429 522.523467,108.076429 C523.62261,108.076429 524.676504,107.652488 525.507931,106.896182 L525.507931,108.575296 C524.647596,109.090172 523.548454,109.377069 522.567458,109.377069 C519.376238,109.377069 516.732389,106.790517 516.732389,103.492488 C516.732389,100.117611 519.391321,97.4849507 522.686862,97.4849507 C523.667229,97.4849507 524.66205,97.7270197 525.507931,98.2566256 L525.507931,99.9056404 Z" id="Fill-40" fill="#004FA2" mask="url(#mask-2)"></path>
                        <polygon id="Fill-41" fill="#004FA2" mask="url(#mask-2)" points="541.484707 97.7267635 547.497625 97.7267635 547.497625 99.0274039 542.880473 99.0274039 542.880473 102.221049 547.364395 102.221049 547.364395 103.52169 542.880473 103.52169 542.880473 107.833463 547.497625 107.833463 547.497625 109.135384 541.484707 109.135384"></polygon>
                    </g>
                </g>
            </g>
        </g>
    </g>
</svg>